<svg width="231" height="73" viewBox="0 0 231 73" fill="none" xmlns="http://www.w3.org/2000/svg">
<path d="M0.7 71.4H48.3V56H24.8L36.4 44.3C42.8 37.9 47.3 30.7 47.3 22.3C47.3 8.2 36.1 0 23.6 0C13.9 0 4.5 4.9 0 15.3L13.5 23.2C15.4 18.8 18.9 15.6 23.8 15.6C28.5 15.6 31.3 18.6 31.3 23C31.3 27.1 28.3 31.2 24.2 35.4L0.7 59.8V71.4Z" fill="white"/>
<path d="M82.3438 72.8C100.444 72.8 110.844 58 110.844 36.4C110.844 14.8 100.444 0 82.3438 0C64.2437 0 53.8438 14.8 53.8438 36.4C53.8438 58 64.2437 72.8 82.3438 72.8ZM82.3438 57.2C73.9437 57.2 69.8438 49.9 69.8438 36.4C69.8438 22.9 73.9437 15.6 82.3438 15.6C90.7438 15.6 94.8438 22.9 94.8438 36.4C94.8438 49.9 90.7438 57.2 82.3438 57.2Z" fill="white"/>
<path d="M145.332 72.8C163.432 72.8 173.832 58 173.832 36.4C173.832 14.8 163.432 0 145.332 0C127.232 0 116.832 14.8 116.832 36.4C116.832 58 127.232 72.8 145.332 72.8ZM145.332 57.2C136.932 57.2 132.832 49.9 132.832 36.4C132.832 22.9 136.932 15.6 145.332 15.6C153.732 15.6 157.832 22.9 157.832 36.4C157.832 49.9 153.732 57.2 145.332 57.2Z" fill="white"/>
<path d="M207.52 23.5L222.72 1.4H204.32L182.92 33.9C180.32 37.8 178.82 42.7 178.82 48.1C178.82 62.6 189.32 72.8 204.82 72.8C220.22 72.8 230.82 62.6 230.82 48.1C230.82 34.5 221.42 24.6 207.52 23.5ZM204.82 57.8C199.42 57.8 194.82 54.3 194.82 48.1C194.82 41.9 199.42 38.4 204.82 38.4C210.12 38.4 214.82 42 214.82 48.1C214.82 54.2 210.12 57.8 204.82 57.8Z" fill="white"/>
</svg>
