<svg width="224" height="73" viewBox="0 0 213 73" fill="none" xmlns="http://www.w3.org/2000/svg">
<path d="M0.7 71.4005H48.3V56.0005H24.8L36.4 44.3005C42.8 37.9005 47.3 30.7005 47.3 22.3005C47.3 8.20049 36.1 0.000488281 23.6 0.000488281C13.9 0.000488281 4.5 4.90049 0 15.3005L13.5 23.2005C15.4 18.8005 18.9 15.6005 23.8 15.6005C28.5 15.6005 31.3 18.6005 31.3 23.0005C31.3 27.1005 28.3 31.2005 24.2 35.4005L0.7 59.8005V71.4005Z" fill="white"/>
<path d="M82.3438 72.8005C100.444 72.8005 110.844 58.0005 110.844 36.4005C110.844 14.8005 100.444 0.000488281 82.3438 0.000488281C64.2437 0.000488281 53.8438 14.8005 53.8438 36.4005C53.8438 58.0005 64.2437 72.8005 82.3438 72.8005ZM82.3438 57.2005C73.9437 57.2005 69.8438 49.9005 69.8438 36.4005C69.8438 22.9005 73.9437 15.6005 82.3438 15.6005C90.7438 15.6005 94.8438 22.9005 94.8438 36.4005C94.8438 49.9005 90.7438 57.2005 82.3438 57.2005Z" fill="white"/>
<path d="M131.179 1.40049L112.879 8.00049L116.779 21.7005L129.179 18.3005V71.4005H145.179V1.40049H131.179Z" fill="white"/>
<path d="M183.711 72.8005C201.811 72.8005 212.211 58.0005 212.211 36.4005C212.211 14.8005 201.811 0.000488281 183.711 0.000488281C165.611 0.000488281 155.211 14.8005 155.211 36.4005C155.211 58.0005 165.611 72.8005 183.711 72.8005ZM183.711 57.2005C175.311 57.2005 171.211 49.9005 171.211 36.4005C171.211 22.9005 175.311 15.6005 183.711 15.6005C192.111 15.6005 196.211 22.9005 196.211 36.4005C196.211 49.9005 192.111 57.2005 183.711 57.2005Z" fill="white"/>
</svg>
