<svg width="205" height="73" viewBox="0 0 205 73" fill="none" xmlns="http://www.w3.org/2000/svg">
<path d="M0.7 71.4005H48.3V56.0005H24.8L36.4 44.3005C42.8 37.9005 47.3 30.7005 47.3 22.3005C47.3 8.20049 36.1 0.000488281 23.6 0.000488281C13.9 0.000488281 4.5 4.90049 0 15.3005L13.5 23.2005C15.4 18.8005 18.9 15.6005 23.8 15.6005C28.5 15.6005 31.3 18.6005 31.3 23.0005C31.3 27.1005 28.3 31.2005 24.2 35.4005L0.7 59.8005V71.4005Z" fill="white"/>
<path d="M82.3438 72.8005C100.444 72.8005 110.844 58.0005 110.844 36.4005C110.844 14.8005 100.444 0.000488281 82.3438 0.000488281C64.2437 0.000488281 53.8438 14.8005 53.8438 36.4005C53.8438 58.0005 64.2437 72.8005 82.3438 72.8005ZM82.3438 57.2005C73.9437 57.2005 69.8438 49.9005 69.8438 36.4005C69.8438 22.9005 73.9437 15.6005 82.3438 15.6005C90.7438 15.6005 94.8438 22.9005 94.8438 36.4005C94.8438 49.9005 90.7438 57.2005 82.3438 57.2005Z" fill="white"/>
<path d="M131.179 1.40049L112.879 8.00049L116.779 21.7005L129.179 18.3005V71.4005H145.179V1.40049H131.179Z" fill="white"/>
<path d="M180.711 26.0005H175.011L175.711 16.4005H201.211V1.40049H160.711L157.811 41.6005H179.711C185.811 41.6005 188.711 45.1005 188.711 49.4005C188.711 53.7005 185.811 57.2005 179.211 57.2005C172.611 57.2005 169.611 54.4005 168.011 49.8005L154.211 57.8005C158.511 68.1005 168.111 72.8005 179.211 72.8005C192.711 72.8005 204.711 64.8005 204.711 49.4005C204.711 34.0005 193.711 26.0005 180.711 26.0005Z" fill="white"/>
</svg>
