<svg width="225" height="73" viewBox="0 0 225 73" fill="none" xmlns="http://www.w3.org/2000/svg">
<path d="M0.7 71.4H48.3V56H24.8L36.4 44.3C42.8 37.9 47.3 30.7 47.3 22.3C47.3 8.2 36.1 0 23.6 0C13.9 0 4.5 4.9 0 15.3L13.5 23.2C15.4 18.8 18.9 15.6 23.8 15.6C28.5 15.6 31.3 18.6 31.3 23C31.3 27.1 28.3 31.2 24.2 35.4L0.7 59.8V71.4Z" fill="white"/>
<path d="M82.3438 72.8C100.444 72.8 110.844 58 110.844 36.4C110.844 14.8 100.444 0 82.3438 0C64.2437 0 53.8438 14.8 53.8438 36.4C53.8438 58 64.2437 72.8 82.3438 72.8ZM82.3438 57.2C73.9437 57.2 69.8438 49.9 69.8438 36.4C69.8438 22.9 73.9437 15.6 82.3438 15.6C90.7437 15.6 94.8438 22.9 94.8438 36.4C94.8438 49.9 90.7437 57.2 82.3438 57.2Z" fill="white"/>
<path d="M114.079 71.4H161.679V56H138.179L149.779 44.3C156.179 37.9 160.679 30.7 160.679 22.3C160.679 8.2 149.479 0 136.979 0C127.279 0 117.879 4.9 113.379 15.3L126.879 23.2C128.779 18.8 132.279 15.6 137.179 15.6C141.879 15.6 144.679 18.6 144.679 23C144.679 27.1 141.679 31.2 137.579 35.4L114.079 59.8V71.4Z" fill="white"/>
<path d="M195.723 72.8C213.823 72.8 224.223 58 224.223 36.4C224.223 14.8 213.823 0 195.723 0C177.623 0 167.223 14.8 167.223 36.4C167.223 58 177.623 72.8 195.723 72.8ZM195.723 57.2C187.323 57.2 183.223 49.9 183.223 36.4C183.223 22.9 187.323 15.6 195.723 15.6C204.123 15.6 208.223 22.9 208.223 36.4C208.223 49.9 204.123 57.2 195.723 57.2Z" fill="white"/>
</svg>
