<svg width="44" height="48" viewBox="0 0 44 48" fill="none" xmlns="http://www.w3.org/2000/svg">
<g clip-path="url(#clip0_84_8574)">
<path fill-rule="evenodd" clip-rule="evenodd" d="M21 2.00003H2V46H34V45V44V15H22C21.4477 15 21 14.5523 21 14V2.00003ZM35.7071 13.2929C35.725 13.3108 35.7421 13.3292 35.7584 13.3482C35.9062 13.5201 35.9889 13.7343 35.999 13.9543M36 14.0078V44V45V46C36 47.2162 34.9862 48 34 48H2C0.783853 48 0 46.9862 0 46V2.00003C0 0.783882 1.01382 2.91965e-05 2 2.91965e-05H21.9921C22.01 -0.000107519 22.0279 0.000236088 22.0457 0.00105615C22.2626 0.0110288 22.4738 0.0914629 22.6445 0.235393C22.666 0.253562 22.6869 0.272743 22.7071 0.292922L35.7071 13.2929M23 13V3.41424L32.5858 13H23Z" fill="#455582"/>
<path d="M42 25H9C7.89543 25 7 25.8954 7 27V39C7 40.1046 7.89543 41 9 41H42C43.1046 41 44 40.1046 44 39V27C44 25.8954 43.1046 25 42 25Z" fill="#455582"/>
<path d="M14.7598 28.1999H10.8398V37.9999H14.7598C17.4618 37.9999 19.5198 35.8719 19.5198 33.0999C19.5198 30.3279 17.4618 28.1999 14.7598 28.1999ZM14.7598 35.8439H13.0798V30.3559H14.7598C16.2998 30.3559 17.3638 31.4199 17.3638 33.0999C17.3638 34.7799 16.2998 35.8439 14.7598 35.8439ZM25.4553 38.1959C28.2693 38.1959 30.5513 35.9839 30.5513 33.0999C30.5513 30.2159 28.2693 28.0039 25.4553 28.0039C22.6413 28.0039 20.3593 30.2159 20.3593 33.0999C20.3593 35.9839 22.6413 38.1959 25.4553 38.1959ZM25.4553 36.0119C23.8593 36.0119 22.5993 34.8499 22.5993 33.0999C22.5993 31.3499 23.8593 30.1879 25.4553 30.1879C27.0513 30.1879 28.3113 31.3499 28.3113 33.0999C28.3113 34.8499 27.0513 36.0119 25.4553 36.0119ZM36.4885 38.1959C38.2805 38.1959 39.8485 37.3139 40.6885 35.9279L38.7565 34.8079C38.3365 35.5639 37.4825 36.0119 36.4885 36.0119C34.7525 36.0119 33.6325 34.8499 33.6325 33.0999C33.6325 31.3499 34.7525 30.1879 36.4885 30.1879C37.4825 30.1879 38.3225 30.6359 38.7565 31.3919L40.6885 30.2719C39.8345 28.8859 38.2665 28.0039 36.4885 28.0039C33.5345 28.0039 31.3925 30.2159 31.3925 33.0999C31.3925 35.9839 33.5345 38.1959 36.4885 38.1959Z" fill="white"/>
</g>
<defs>
<clipPath id="clip0_84_8574">
<rect width="44" height="48" fill="white"/>
</clipPath>
</defs>
</svg>
