<svg width="20" height="20" viewBox="0 0 20 20" fill="none" xmlns="http://www.w3.org/2000/svg">
<path d="M2.5 3.75H6.25V11.875H2.5C2.33424 11.875 2.17527 11.8092 2.05806 11.6919C1.94085 11.5747 1.875 11.4158 1.875 11.25V4.375C1.875 4.20924 1.94085 4.05027 2.05806 3.93306C2.17527 3.81585 2.33424 3.75 2.5 3.75V3.75Z" stroke="#99A2BA" stroke-width="2" stroke-linecap="round" stroke-linejoin="round"/>
<path d="M6.25 11.875L9.375 18.125C9.7033 18.125 10.0284 18.0603 10.3317 17.9347C10.635 17.8091 10.9106 17.6249 11.1428 17.3928C11.3749 17.1606 11.5591 16.885 11.6847 16.5817C11.8103 16.2784 11.875 15.9533 11.875 15.625V13.75H16.709C16.8863 13.75 17.0615 13.7123 17.223 13.6394C17.3846 13.5665 17.5288 13.4601 17.6461 13.3273C17.7634 13.1944 17.8511 13.0381 17.9034 12.8687C17.9557 12.6994 17.9714 12.5208 17.9494 12.345L17.0119 4.84496C16.9741 4.54264 16.8272 4.26453 16.5988 4.0629C16.3704 3.86127 16.0762 3.75 15.7715 3.75H6.25" stroke="#99A2BA" stroke-width="2" stroke-linecap="round" stroke-linejoin="round"/>
</svg>
