<svg width="40" height="40" viewBox="0 0 40 40" fill="none" xmlns="http://www.w3.org/2000/svg">
<path d="M27.5 8.75H35" stroke="white" stroke-width="2" stroke-linecap="round" stroke-linejoin="round"/>
<path d="M31.25 5V12.5" stroke="white" stroke-width="2" stroke-linecap="round" stroke-linejoin="round"/>
<path d="M4.84375 33.7485C6.38056 31.0885 8.59033 28.8797 11.2511 27.344C13.9118 25.8084 16.9298 25 20.0019 25C23.074 25 26.092 25.8085 28.7527 27.3442C31.4134 28.8799 33.6231 31.0888 35.1599 33.7489" stroke="white" stroke-width="2" stroke-linecap="round" stroke-linejoin="round"/>
<path d="M29.383 18.4661C28.7145 20.2709 27.5392 21.8443 25.9982 22.9973C24.4572 24.1504 22.6161 24.834 20.696 24.966C18.7759 25.098 16.8586 24.6729 15.1743 23.7416C13.49 22.8103 12.1103 21.4126 11.2012 19.7163C10.292 18.0199 9.89189 16.0972 10.049 14.179C10.2061 12.2608 10.9136 10.4288 12.0867 8.90295C13.2597 7.37715 14.8484 6.22247 16.6618 5.57765C18.4751 4.93283 20.4361 4.82529 22.3091 5.26795" stroke="white" stroke-width="2" stroke-linecap="round" stroke-linejoin="round"/>
</svg>
